<svg xmlns="http://www.w3.org/2000/svg" viewBox="0 0 563.41 525.13"><defs><style>.cls-1{fill:none;stroke:#093386;stroke-miterlimit:10;stroke-width:14px;}.cls-2{fill:#0073f4;}.cls-3{fill:#fbf72b;}.cls-4{fill:#fff;}.cls-5,.cls-6{fill:#093386;}.cls-6{font-size:39.62px;font-family:Georgia;}</style></defs><g id="Слой_2" data-name="Слой 2"><g id="Слой_1-2" data-name="Слой 1"><path class="cls-1" d="M286.06,7C432.79,9.09,551.63,118.16,556.42,254.05"/><path class="cls-1" d="M7,258.08C9.5,122.89,124.86,13.27,269.19,7.23"/><path class="cls-1" d="M277.05,518.13C133.67,515.89,17,411.5,7.57,279.82"/><path class="cls-1" d="M556.41,271.39C551.53,405.09,436.25,512.74,292.69,518"/><path class="cls-2" d="M531.57,270.28c0,121.58-110.53,227.56-247.7,227.56-145,0-256.17-102.56-256.17-224.26,0-124.45,123.57-228.64,257.62-228.64S531.57,145.83,531.57,270.28Z"/><path class="cls-3" d="M27.7,272.23c0-106.42,76-245.46,251.44-245.46,149.93,0,252.43,106.08,252.43,247,0,0-112.84-23.22-252.43-23.22-191.12,0-239,21.94-252.52,21.72"/><polygon class="cls-4" points="49.49 222.85 131.22 248.43 198.79 246.91 407.21 244.13 448.52 247.04 508.9 227.46 417.16 231.28 385.49 232.89 483.51 176.05 363.76 225.31 363.76 225.31 446.88 129.57 359.66 197.27 352.27 197.94 397.11 94.7 325.36 190.71 341.03 73.99 298.1 185.14 283.68 64.89 268.2 183.94 222.29 71.21 242.87 190.23 163.68 90.41 218.41 202.25 120.23 125.78 201.07 219.25 77.03 170.75 200.31 245.78 49.49 222.85"/><path class="cls-5" d="M27.7,272.23c14.6-.59,64-21.69,251.48-21.69,139.59,0,252.43,23.22,252.43,23.22,0-.66,0-1.31,0-2l-.4-13.3a3.41,3.41,0,0,1-.1-.82H519.23v-9.19H490.34V227.3H478.5V213.76H454.05v13.92h-6V205.23H409.43V170.37h-7.76v45.09h-16.3v8h-8.05v-8.24H365.19V176.9h-30v5.4h9.47V188h-8.81v11.08h8.81v5.69h-8.81v12.79H330v-8.34h-9.47v-14.4H312V199H299.63v24.44H281.25V205.61h-9.66l-6.44-8.53v-8.14H242.6v32.3H230.67V197h-1.9V194.9H224.7l-2.47,1.8V205h-5.49v4.36H194.29v28.23H183.87V156h-7.68v-7.58h7.68V136.07h-8.15v-6.63h8.15V115.7H157.62v38.75h6v8h-6.25v8.43h6.25v8h-6.16v8h6.16V195h-6v6.06h6v6.44h-5.87v9.76h5.87v6.35h-6.25v14.21h-10V199h-4v-6.16h4V180.69h-2.08l-2.06,0,0-2.11v-3.88l0-2.18h4.14V150.26h-4v-6.09h4v-8h-4.1l0-2.17v-6h4.12V105.33H139.2V115.7H116.93v4h4v4h-4V138h4v4.16H117V170.4h4v6.22h-4v4.14h4v4.1h-2l-2.06,0V191h4.14v3.94H117v16.39h4.14v8H117v8.08h4l2,0v6.4l0,1.85-2.23,0h-4V256H104.6V239.9l-10-6.25v-18.5H86.54v18.44H78.08V256L64,256V245.78H57.94v-4.17l2-.05,4.1,0v-3.84H35.55v22.4H28m170.15-44.61h7.67v18.66h-7.67Z"/><text class="cls-6" transform="matrix(1, -0.14, 0.14, 0.99, 218.61, 66.15)">Ж</text><text class="cls-6" transform="matrix(1.01, 0, 0, 1, 260.76, 60.31)">Ш</text><text class="cls-6" transform="translate(307.91 61.16) rotate(7.37) scale(1.01 1)">С</text><path class="cls-4" d="M138.35,282.35l39.39,0a4,4,0,0,1,4,4v22.69a4,4,0,0,0,4,4H186a4,4,0,0,0,2.64-1c47-40.7,164.09-32.21,208.87-20a4,4,0,0,1,1.68,6.78L378.5,318.53a4.08,4.08,0,0,1-3.19,1.07c-288.29-30.79-206.63,156.17-1.73,101a4,4,0,0,1,4.36,1.61c12.09,17.56,30.18,20.47,38,20.87a4,4,0,0,1,3.83,4v8.25a4,4,0,0,1-4,4l-38.7,0a4,4,0,0,1-4-4h0a4,4,0,0,0-4.31-4c-25.16,1.86-111.35,12.47-183.09-23.55a4,4,0,0,0-5.83,3.58l.08,21.86a4,4,0,0,1-4,4l-33.06,0a4,4,0,0,1-2.73-1.08l-3.67-3.42a4,4,0,0,1-1.27-2.91l-.82-163.44A4,4,0,0,1,138.35,282.35Z"/><path class="cls-4" d="M303.76,330.18v79.66a2.81,2.81,0,0,1-2.76,2.82c-22.29.3-47.33-1.88-57.34-11.61-3.08-3,5.7-16.69,9.62-14.93,9.33,4.19,26.22,7.94,30,6.32,0,0,0,0,0,0L283.25,375a0,0,0,0,0,0-.05c-13.56,0-20.23,1.21-20.23-5.43,0-5.63,8-5.93,20.28-5.93a0,0,0,0,0,0-.05l.07-18.26a0,0,0,0,0,0,0c-9.63-1.78-18.28,1.94-24.65,5.14a10.48,10.48,0,0,1-14-4.34c-7.72-15.35,41.34-20.42,55.41-19.65A3.85,3.85,0,0,1,303.76,330.18Z"/><path class="cls-4" d="M312,329.61l0,80.48a2.45,2.45,0,0,0,2.45,2.45h52a2.45,2.45,0,0,0,2.45-2.45h0a13.7,13.7,0,0,0-4-9.71l-1-1a10.54,10.54,0,0,0-7.49-3.1l-23.65,0a2.46,2.46,0,0,1-2.46-2.45V345.91a2.46,2.46,0,0,1,2.46-2.45l22.17.07a12.93,12.93,0,0,0,9.6-4.23l1.27-1.39a12.1,12.1,0,0,0,3.14-8.13v-.17a2.45,2.45,0,0,0-2.45-2.45H314.46A2.45,2.45,0,0,0,312,329.61Z"/></g></g></svg>